<svg id="Layer_2" data-name="Layer 2" xmlns="http://www.w3.org/2000/svg" viewBox="0 0 1719 1719"><defs><style>.cls-1{fill:#fff;}</style></defs><title>ftmt</title><path class="cls-1" d="M1757.71,162.29V1757.71H162.29V162.29H1757.71m61.79-61.79H100.5v1719h1719V100.5Z" transform="translate(-100.5 -100.5)"/><path class="cls-1" d="M461.83,430V569.71H733.65v98.17H461.83V860.44H339.49V331.83H872.65V430Z" transform="translate(-100.5 -100.5)"/><path class="cls-1" d="M1260.24,428.77H1054.18V329.09H1588v99.68H1382.57V857.7H1260.24Z" transform="translate(-100.5 -100.5)"/><path class="cls-1" d="M1260.24,1174.31H1054.18v-99.68H1588v99.68H1382.57v428.93H1260.24Z" transform="translate(-100.5 -100.5)"/><path class="cls-1" d="M773.33,1604.61l-.67-317.16L633.18,1548.73H583.76L445,1294.24v310.37H342V1076h90.73l177.39,328.49L784.84,1076h90l1.36,528.61Z" transform="translate(-100.5 -100.5)"/></svg>